HIERARCHY
ROOT Pelvis
{
	OFFSET 0.000000 0.000000 0.000000
	CHANNELS 6 Xposition Yposition Zposition Xrotation Yrotation Zrotation
	JOINT LeftUpLeg_virtual
	{
		OFFSET 0.000000 0.000000 0.000000
		CHANNELS 3 Xrotation Yrotation Zrotation
		JOINT LeftUpLeg
		{
			OFFSET 18.735201 -5.666702 -4.541200
			CHANNELS 3 Xrotation Yrotation Zrotation
			JOINT LeftLeg
			{
				OFFSET -0.021200 -31.938179 0.493100
				CHANNELS 3 Xrotation Yrotation Zrotation
				JOINT LeftFoot
				{
					OFFSET 0.021200 -31.938179 -4.336299
					CHANNELS 3 Xrotation Yrotation Zrotation
					JOINT LeftToeBase
					{
						OFFSET 0.943001 -26.722000 15.023500
						CHANNELS 3 Xrotation Yrotation Zrotation
						End Site
						{
							OFFSET 0 0 0
						}
					}
				}
			}
		}
	}
	JOINT RightUpLeg_virtual
	{
		OFFSET 0.000000 0.000000 0.000000
		CHANNELS 3 Xrotation Yrotation Zrotation
		JOINT RightUpLeg
		{
			OFFSET -18.735201 -5.666702 -4.541200
			CHANNELS 3 Xrotation Yrotation Zrotation
			JOINT RightLeg
			{
				OFFSET 0.018946 -31.938133 0.493100
				CHANNELS 3 Xrotation Yrotation Zrotation
				JOINT RightFoot
				{
					OFFSET -0.018946 -31.938126 -4.336299
					CHANNELS 3 Xrotation Yrotation Zrotation
					JOINT RightToeBase
					{
						OFFSET -0.943001 -26.722004 15.023500
						CHANNELS 3 Xrotation Yrotation Zrotation
						End Site
						{
							OFFSET 0 0 0
						}
					}
				}
			}
		}
	}
	JOINT Hips_virtual
	{
		OFFSET 0.000000 0.000000 0.000000
		CHANNELS 3 Xrotation Yrotation Zrotation
		JOINT Hips
		{
			OFFSET -0.000000 -0.000000 -0.000000
			CHANNELS 3 Xrotation Yrotation Zrotation
			JOINT Spine
			{
				OFFSET 0.000000 10.199997 -0.299500
				CHANNELS 3 Xrotation Yrotation Zrotation
				JOINT Spine1
				{
					OFFSET 0.000000 11.900002 -1.516600
					CHANNELS 3 Xrotation Yrotation Zrotation
					JOINT Spine2
					{
						OFFSET 0.000000 13.600006 -2.842500
						CHANNELS 3 Xrotation Yrotation Zrotation
						JOINT Neck_virtual
						{
							OFFSET 0.000000 0.000000 0.000000
							CHANNELS 3 Xrotation Yrotation Zrotation
							JOINT Neck
							{
								OFFSET 0.000000 9.624100 -2.890100
								CHANNELS 3 Xrotation Yrotation Zrotation
								JOINT Head
								{
									OFFSET 0.000000 14.068802 -1.351900
									CHANNELS 3 Xrotation Yrotation Zrotation
									End Site
									{
										OFFSET 0 0 0
									}
								}
							}
						}
						JOINT LeftShoulder_virtual
						{
							OFFSET 0.000000 0.000000 0.000000
							CHANNELS 3 Xrotation Yrotation Zrotation
							JOINT LeftShoulder
							{
								OFFSET 15.263000 10.923401 -0.547700
								CHANNELS 3 Xrotation Yrotation Zrotation
								JOINT LeftArm
								{
									OFFSET 25.438599 -2.830597 -13.032500
									CHANNELS 3 Xrotation Yrotation Zrotation
									JOINT LeftForeArm
									{
										OFFSET 29.960503 0.000000 0.000000
										CHANNELS 3 Xrotation Yrotation Zrotation
										JOINT LeftHand
										{
											OFFSET 27.849251 0.000000 0.000000
											CHANNELS 3 Xrotation Yrotation Zrotation
											End Site
											{
												OFFSET 0 0 0
											}
										}
									}
								}
							}
						}
						JOINT RightShoulder_virtual
						{
							OFFSET 0.000000 0.000000 0.000000
							CHANNELS 3 Xrotation Yrotation Zrotation
							JOINT RightShoulder
							{
								OFFSET -15.263000 10.923401 -0.547700
								CHANNELS 3 Xrotation Yrotation Zrotation
								JOINT RightArm
								{
									OFFSET -25.438599 -2.830597 -13.032500
									CHANNELS 3 Xrotation Yrotation Zrotation
									JOINT RightForeArm
									{
										OFFSET -29.960503 0.000000 0.000000
										CHANNELS 3 Xrotation Yrotation Zrotation
										JOINT RightHand
										{
											OFFSET -27.849251 0.000000 0.000000
											CHANNELS 3 Xrotation Yrotation Zrotation
											End Site
											{
												OFFSET 0 0 0
											}
										}
									}
								}
							}
						}
					}
				}
			}
		}
	}
}
MOTION
Frames: 5
Frame Time: 0.03333333
-100.858551 79.132225 -2.104872 0.000000 0.000000 0.000000 10.683109 -77.080952 13.310370 -44.143895 -12.705984 16.621914 52.462338 -5.846066 -9.905008 -0.211283 -1.312936 -24.870464 0.000000 0.000000 0.000000 2.616062 -32.927007 -3.070740 -30.767786 -11.953721 -22.506877 65.096901 8.488833 -1.937989 0.673137 6.276219 16.609700 0.000000 0.000000 0.000000 7.353974 -18.894777 4.046042 -0.402756 -38.341438 5.723528 21.839725 1.466184 -5.400089 14.750806 1.446975 -5.262744 0.000000 0.000000 0.000000 10.470187 5.143086 -4.625430 1.029426 3.244132 0.128075 0.000000 0.000000 0.000000 13.576452 1.870648 -3.266067 2.061781 -8.179806 0.311831 -25.159770 -1.836496 -33.779104 -5.568031 -51.822185 2.246109 0.000000 0.000000 0.000000 14.175078 5.463473 -2.761335 3.228748 8.681189 0.645771 -34.181234 2.565993 30.950729 -54.333089 74.614489 52.593215 0.000000 0.000000 0.000000 
-101.826599 79.174461 -2.114683 0.000000 0.000000 0.000000 10.741785 -76.371145 13.044592 -43.720843 -12.335420 16.600833 52.423693 -6.135337 -10.086761 -0.317285 -1.490065 -25.336833 0.000000 0.000000 0.000000 2.023465 -34.791590 -3.717641 -31.389808 -12.206059 -23.200518 63.050364 6.465260 -2.101237 -0.170431 4.500571 14.368276 0.000000 0.000000 0.000000 6.976258 -19.819889 4.029634 -0.431166 -38.120925 5.384291 21.664045 1.175322 -5.650069 14.607799 1.273783 -5.414255 0.000000 0.000000 0.000000 10.282756 4.990681 -4.992228 0.971175 3.316339 -0.115955 0.000000 0.000000 0.000000 13.253016 1.566249 -3.589287 1.753640 -8.405974 -1.281893 -26.000076 -2.305982 -34.275918 -5.997918 -52.203477 1.765743 0.000000 0.000000 0.000000 13.933757 5.299803 -2.889204 3.198092 8.430602 -0.015409 -33.318786 1.461626 31.922740 -57.216225 75.006795 55.830137 0.000000 0.000000 0.000000 
-102.900375 79.242836 -1.961372 0.000000 0.000000 0.000000 10.427263 -75.701350 12.497393 -43.486144 -11.997022 16.542453 52.331164 -6.482291 -10.168986 -0.505360 -1.761618 -25.690189 0.000000 0.000000 0.000000 1.796306 -36.389219 -4.328010 -31.566648 -12.465654 -23.920629 61.256948 5.094499 -2.248285 -1.092063 3.269045 12.801748 0.000000 0.000000 0.000000 6.588601 -20.697676 4.005026 -0.498972 -37.702627 5.054083 21.460432 0.906218 -5.872123 14.447664 1.114013 -5.545694 0.000000 0.000000 0.000000 10.061610 4.821211 -5.315585 0.902684 3.366796 -0.333881 0.000000 0.000000 0.000000 12.932003 1.259118 -3.910126 1.439873 -8.637115 -2.881475 -26.417435 -2.782435 -34.645540 -6.183357 -52.403923 1.456669 0.000000 0.000000 0.000000 13.703564 5.135526 -3.020343 3.172502 8.195953 -0.701312 -32.591470 0.412933 32.512431 -59.928271 75.375058 58.761927 0.000000 0.000000 0.000000 
-104.139328 79.270477 -1.614651 0.000000 0.000000 0.000000 9.674500 -75.012348 11.687587 -43.464066 -11.725195 16.486917 52.209444 -6.861545 -10.209796 -0.723411 -2.081699 -26.006077 0.000000 0.000000 0.000000 1.871565 -37.055962 -4.527419 -31.311691 -12.653474 -24.157908 59.402066 4.646569 -2.211277 -2.001244 2.784654 12.307092 0.000000 0.000000 0.000000 6.124282 -21.580939 3.944912 -0.919572 -37.195469 4.509984 21.223157 0.648953 -6.074724 14.269992 0.962363 -5.661612 0.000000 0.000000 0.000000 9.813063 4.629271 -5.544022 0.825713 3.392092 -0.495930 0.000000 0.000000 0.000000 12.646522 0.974832 -4.203260 1.163881 -8.777200 -4.353472 -26.185084 -3.253723 -34.684247 -5.970221 -52.256087 1.476861 0.000000 0.000000 0.000000 13.461791 4.958202 -3.137833 3.119958 7.912795 -1.347482 -31.974188 -0.627270 32.863383 -62.770313 75.729518 61.741871 0.000000 0.000000 0.000000 
-105.446411 79.116776 -1.403734 0.000000 0.000000 0.000000 8.599154 -74.530218 10.651846 -43.645691 -11.547380 16.337983 52.206097 -7.390277 -10.176758 -0.889321 -2.585591 -26.327507 0.000000 0.000000 0.000000 1.806934 -36.824975 -4.700306 -31.107332 -12.595516 -24.195001 57.509749 4.814913 -2.088460 -2.955099 2.811064 12.459212 0.000000 0.000000 0.000000 5.590594 -22.480512 3.863949 -1.663359 -36.716420 3.893435 20.958994 0.390952 -6.248587 14.070526 0.812561 -5.756204 0.000000 0.000000 0.000000 9.536855 4.411233 -5.735077 0.737222 3.393000 -0.636999 0.000000 0.000000 0.000000 12.332212 0.692125 -4.473166 0.864292 -8.921786 -5.743057 -25.730996 -3.679932 -34.590831 -5.637134 -51.988145 1.608929 0.000000 0.000000 0.000000 13.156017 4.774077 -3.225212 2.981320 7.603375 -1.900678 -31.502304 -1.546204 33.133415 -66.186568 76.099782 65.244344 0.000000 0.000000 0.000000 
